<?xml version="1.0" ?><svg id="Layer_1_1_" style="enable-background:new 0 0 64 64;" version="1.1" viewBox="0 0 64 64" xml:space="preserve" xmlns="http://www.w3.org/2000/svg" xmlns:xlink="http://www.w3.org/1999/xlink"><g><g><polygon points="58,62 6,62 2,53 2,52 62,52 62,53   " style="fill:#CF9E76;"/><polygon points="5.111,60 6,62 58,62 58.889,60   " style="fill:#B27946;"/><path d="M52.19,33.709L35.514,19.307C34.537,18.464,33.29,18,32,18s-2.537,0.464-3.514,1.307l-7.224,6.239    c-0.435,0.376-0.596,0.974-0.414,1.52C20.946,27.359,21,27.673,21,28c0,1.657-1.343,3-3,3c0,1.657-1.343,3-3,3    c-0.546,0-1.055-0.149-1.493-0.407c-0.543-0.319-1.219-0.296-1.697,0.116h0c-2.232,1.928-3.695,4.664-3.803,7.611    C7.791,47.181,12.478,52,18.29,52H45.71c5.812,0,10.499-4.819,10.283-10.679C55.884,38.373,54.422,35.637,52.19,33.709z" style="fill:#E6E9ED;"/><path d="M12.21,50c1.705,1.253,3.803,2,6.081,2H45.71c2.277,0,4.376-0.747,6.081-2H12.21z" style="fill:#CCD1D9;"/></g><g><path d="M52.13,51c0.609-0.423,1.182-0.909,1.71-1.456c2.147-2.228,3.267-5.161,3.152-8.261c-0.115-3.116-1.628-6.152-4.149-8.331    L36.167,18.551C35.01,17.551,33.53,17,32,17s-3.01,0.551-4.167,1.551l-7.225,6.239c-0.743,0.643-1.021,1.66-0.709,2.591    C19.966,27.581,20,27.789,20,28c0,1.103-0.897,2-2,2h-1v1c0,1.103-0.897,2-2,2c-0.351,0-0.683-0.091-0.986-0.27    c-0.925-0.543-2.074-0.454-2.856,0.222c-2.521,2.179-4.034,5.215-4.149,8.331c-0.114,3.1,1.005,6.033,3.152,8.261    c0.528,0.547,1.101,1.033,1.71,1.456H1v2.212L5.351,63h53.299L63,53.212V51H52.13z M11.601,48.156    c-1.767-1.833-2.688-4.248-2.595-6.799c0.096-2.563,1.355-5.075,3.459-6.892c0.076-0.066,0.165-0.092,0.253-0.092    c0.103,0,0.205,0.035,0.282,0.081C13.606,34.812,14.298,35,15,35c1.896,0,3.489-1.327,3.898-3.102C20.673,31.489,22,29.896,22,28    c0-0.425-0.068-0.846-0.203-1.252c-0.054-0.161-0.007-0.336,0.119-0.445l7.224-6.238c1.59-1.373,4.131-1.373,5.721,0    l16.676,14.401c2.103,1.816,3.362,4.328,3.458,6.892c0.094,2.551-0.828,4.966-2.595,6.799C50.632,49.99,48.256,51,45.71,51H18.29    C15.744,51,13.368,49.99,11.601,48.156z M57.351,61H6.649l-3.555-8H18.29h27.42h15.195L57.351,61z"/><path d="M49,43h2c0-3.862-4.334-7.35-8.923-11.042C37.614,28.367,33,24.654,33,21h-2c0,4.612,4.994,8.631,9.823,12.517    C44.844,36.751,49,40.096,49,43z"/><path d="M25,28c0,3.854-1.355,4.913-3.231,6.38C19.199,36.39,16,38.892,16,49h2c0-9.134,2.657-11.211,5.001-13.045    C24.967,34.418,27,32.828,27,28H25z"/><path d="M30.293,41.793C28.749,43.336,27,45.086,27,49h2c0-3.086,1.255-4.34,2.707-5.793C33.251,41.664,35,39.914,35,36h-2    C33,39.086,31.745,40.34,30.293,41.793z"/><path d="M10,30h2c0-2.056,0.82-3.046,1.771-4.193C14.815,24.544,16,23.113,16,20.338c0-2.777-1.185-4.209-2.229-5.473    C12.82,13.718,12,12.726,12,10.669c0-2.058,0.82-3.049,1.771-4.197C14.815,5.208,16,3.777,16,1h-2c0,2.057-0.82,3.049-1.771,4.196    C11.185,6.46,10,7.892,10,10.669s1.185,4.208,2.229,5.472C13.18,17.289,14,18.28,14,20.338c0,2.056-0.82,3.046-1.771,4.193    C11.185,25.794,10,27.225,10,30z"/><path d="M32,12.828V15h2v-2.172c0-2.061-0.836-4.078-2.293-5.535C30.622,6.208,30,4.706,30,3.172V1h-2v2.172    c0,2.061,0.836,4.078,2.293,5.535C31.378,9.792,32,11.294,32,12.828z"/><path d="M20.342,17.746C19.298,18.659,18,19.796,18,22h2c0-1.236,0.6-1.821,1.658-2.748C22.702,18.339,24,17.202,24,14.998    c0-2.203-1.298-3.34-2.341-4.253C20.6,9.818,20,9.233,20,7.997c0-1.235,0.6-1.82,1.658-2.746C22.702,4.338,24,3.203,24,1h-2    c0,1.235-0.6,1.819-1.658,2.745C19.299,4.658,18,5.794,18,7.997c0,2.204,1.299,3.341,2.342,4.254C21.4,13.178,22,13.762,22,14.998    S21.4,16.819,20.342,17.746z"/></g></g></svg>